{"asset":{"version":"2.0","generator":"babylon.js glTF exporter for 3ds max 2017 v1.2.24","copyright":"2017 (c) BabylonJS"},"extensionsUsed":["KHR_lights"],"scene":0,"scenes":[{"nodes":[0,3],"extensions":{"KHR_lights":{"light":0}}}],"nodes":[{"children":[1,2],"translation":[0.0,0.0,0.0],"rotation":[0.0,0.0,0.0,1.0],"scale":[1.0,1.0,1.0],"name":"Group001"},{"mesh":0,"translation":[-5.701012E-07,-1.35112953,1.90110874],"rotation":[0.7071068,0.0,0.0,0.7071067],"scale":[1.0,1.0,1.0],"name":"TV"},{"mesh":1,"translation":[-8.461162,0.269018173,23.3507137],"rotation":[0.7070799,0.00617059274,-0.006170592,0.7070799],"scale":[1.0,1.0,1.0],"name":"backgroundPlane"},{"translation":[0.0,0.0,0.0],"rotation":[0.0,0.0,0.0,1.0],"scale":[1.0,1.0,1.0],"name":"Default light"}],"meshes":[{"primitives":[{"attributes":{"POSITION":1,"NORMAL":2,"TEXCOORD_0":3},"indices":0,"mode":4,"material":0},{"attributes":{"POSITION":5,"NORMAL":6,"TEXCOORD_0":7},"indices":4,"mode":4,"material":1},{"attributes":{"POSITION":9,"NORMAL":10,"TEXCOORD_0":11},"indices":8,"mode":4,"material":2},{"attributes":{"POSITION":13,"NORMAL":14,"TEXCOORD_0":15},"indices":12,"mode":4,"material":3},{"attributes":{"POSITION":17,"NORMAL":18,"TEXCOORD_0":19},"indices":16,"mode":4,"material":4},{"attributes":{"POSITION":21,"NORMAL":22,"TEXCOORD_0":23},"indices":20,"mode":4,"material":5},{"attributes":{"POSITION":25,"NORMAL":26,"TEXCOORD_0":27},"indices":24,"mode":4,"material":6},{"attributes":{"POSITION":29,"NORMAL":30,"TEXCOORD_0":31},"indices":28,"mode":4,"material":7},{"attributes":{"POSITION":33,"NORMAL":34,"TEXCOORD_0":35},"indices":32,"mode":4,"material":8}],"name":"TV"},{"primitives":[{"attributes":{"POSITION":37,"NORMAL":38,"TEXCOORD_0":39},"indices":36,"mode":4,"material":9}],"name":"backgroundPlane"}],"accessors":[{"bufferView":0,"componentType":5125,"count":62160,"type":"SCALAR","name":"accessorIndices"},{"bufferView":1,"componentType":5126,"count":12514,"max":[21.1408,-25.2016468,-20.50901],"min":[-33.911,-52.0362473,-66.74841],"type":"VEC3","name":"accessorPositions"},{"bufferView":1,"byteOffset":150168,"componentType":5126,"count":12514,"type":"VEC3","name":"accessorNormals"},{"bufferView":2,"componentType":5126,"count":12514,"type":"VEC2","name":"accessorUVs"},{"bufferView":0,"byteOffset":248640,"componentType":5125,"count":17280,"type":"SCALAR","name":"accessorIndices"},{"bufferView":1,"byteOffset":300336,"componentType":5126,"count":3165,"max":[16.2459,25.9514523,19.3545856],"min":[-32.9641,20.7042542,-22.61821],"type":"VEC3","name":"accessorPositions"},{"bufferView":1,"byteOffset":338316,"componentType":5126,"count":3165,"type":"VEC3","name":"accessorNormals"},{"bufferView":2,"byteOffset":100112,"componentType":5126,"count":3165,"type":"VEC2","name":"accessorUVs"},{"bufferView":0,"byteOffset":317760,"componentType":5125,"count":165888,"type":"SCALAR","name":"accessorIndices"},{"bufferView":1,"byteOffset":376296,"componentType":5126,"count":29589,"max":[42.0853,24.3890553,32.391716],"min":[-42.0853,-32.6189461,-31.565712],"type":"VEC3","name":"accessorPositions"},{"bufferView":1,"byteOffset":731364,"componentType":5126,"count":29589,"type":"VEC3","name":"accessorNormals"},{"bufferView":2,"byteOffset":125432,"componentType":5126,"count":29589,"type":"VEC2","name":"accessorUVs"},{"bufferView":0,"byteOffset":981312,"componentType":5125,"count":38400,"type":"SCALAR","name":"accessorIndices"},{"bufferView":1,"byteOffset":1086432,"componentType":5126,"count":6839,"max":[40.0589,24.2423553,26.21322],"min":[-39.7553,22.136755,-29.53381],"type":"VEC3","name":"accessorPositions"},{"bufferView":1,"byteOffset":1168500,"componentType":5126,"count":6839,"type":"VEC3","name":"accessorNormals"},{"bufferView":2,"byteOffset":362144,"componentType":5126,"count":6839,"type":"VEC2","name":"accessorUVs"},{"bufferView":0,"byteOffset":1134912,"componentType":5125,"count":519072,"type":"SCALAR","name":"accessorIndices"},{"bufferView":1,"byteOffset":1250568,"componentType":5126,"count":101527,"max":[40.0589,24.2423553,26.21322],"min":[-39.7553,-29.4239483,-29.53381],"type":"VEC3","name":"accessorPositions"},{"bufferView":1,"byteOffset":2468892,"componentType":5126,"count":101527,"type":"VEC3","name":"accessorNormals"},{"bufferView":2,"byteOffset":416856,"componentType":5126,"count":101527,"type":"VEC2","name":"accessorUVs"},{"bufferView":0,"byteOffset":3211200,"componentType":5125,"count":62496,"type":"SCALAR","name":"accessorIndices"},{"bufferView":1,"byteOffset":3687216,"componentType":5126,"count":11532,"max":[33.5681,24.6059532,-6.8196106],"min":[25.0868988,22.4053535,-19.63591],"type":"VEC3","name":"accessorPositions"},{"bufferView":1,"byteOffset":3825600,"componentType":5126,"count":11532,"type":"VEC3","name":"accessorNormals"},{"bufferView":2,"byteOffset":1229072,"componentType":5126,"count":11532,"type":"VEC2","name":"accessorUVs"},{"bufferView":0,"byteOffset":3461184,"componentType":5125,"count":4056,"type":"SCALAR","name":"accessorIndices"},{"bufferView":1,"byteOffset":3963984,"componentType":5126,"count":1760,"max":[26.5871,23.027956,-5.702209],"min":[23.9963,22.8689537,-19.110611],"type":"VEC3","name":"accessorPositions"},{"bufferView":1,"byteOffset":3985104,"componentType":5126,"count":1760,"type":"VEC3","name":"accessorNormals"},{"bufferView":2,"byteOffset":1321328,"componentType":5126,"count":1760,"type":"VEC2","name":"accessorUVs"},{"bufferView":0,"byteOffset":3477408,"componentType":5125,"count":79488,"type":"SCALAR","name":"accessorIndices"},{"bufferView":1,"byteOffset":4006224,"componentType":5126,"count":14854,"max":[34.7344971,24.543354,-4.55831146],"min":[27.6642,22.7960548,-20.60291],"type":"VEC3","name":"accessorPositions"},{"bufferView":1,"byteOffset":4184472,"componentType":5126,"count":14854,"type":"VEC3","name":"accessorNormals"},{"bufferView":2,"byteOffset":1335408,"componentType":5126,"count":14854,"type":"VEC2","name":"accessorUVs"},{"bufferView":0,"byteOffset":3795360,"componentType":5125,"count":6,"type":"SCALAR","name":"accessorIndices"},{"bufferView":1,"byteOffset":4362720,"componentType":5126,"count":4,"max":[35.1937,22.6267548,15.6543941],"min":[23.7041,22.3215561,-18.690712],"type":"VEC3","name":"accessorPositions"},{"bufferView":1,"byteOffset":4362768,"componentType":5126,"count":4,"type":"VEC3","name":"accessorNormals"},{"bufferView":2,"byteOffset":1454240,"componentType":5126,"count":4,"type":"VEC2","name":"accessorUVs"},{"bufferView":0,"byteOffset":3795384,"componentType":5123,"count":96,"type":"SCALAR","name":"accessorIndices"},{"bufferView":1,"byteOffset":4362816,"componentType":5126,"count":25,"max":[25.25,0.0,21.25],"min":[-25.2500019,-1.90734863E-06,-21.25],"type":"VEC3","name":"accessorPositions"},{"bufferView":1,"byteOffset":4363116,"componentType":5126,"count":25,"type":"VEC3","name":"accessorNormals"},{"bufferView":2,"byteOffset":1454272,"componentType":5126,"count":25,"type":"VEC2","name":"accessorUVs"}],"bufferViews":[{"buffer":0,"byteLength":3795576,"name":"bufferViewScalar"},{"buffer":0,"byteOffset":3795576,"byteLength":4363416,"byteStride":12,"name":"bufferViewFloatVec3"},{"buffer":0,"byteOffset":8158992,"byteLength":1454472,"byteStride":8,"name":"bufferViewFloatVec2"}],"buffers":[{"uri":"rtv1.bin","byteLength":9613464}],"materials":[{"pbrMetallicRoughness":{"baseColorFactor":[1.0,1.0,1.0,1.0],"baseColorTexture":{"index":1,"texCoord":0},"metallicFactor":1.0,"roughnessFactor":1.0,"metallicRoughnessTexture":{"index":2,"texCoord":0}},"normalTexture":{"index":0,"texCoord":0},"emissiveFactor":[0.0,0.0,0.0],"alphaMode":"OPAQUE","name":"Chrome"},{"pbrMetallicRoughness":{"baseColorFactor":[1.0,1.0,1.0,1.0],"baseColorTexture":{"index":3,"texCoord":0},"metallicFactor":1.0,"roughnessFactor":1.0,"metallicRoughnessTexture":{"index":4,"texCoord":0}},"normalTexture":{"index":0,"texCoord":0},"emissiveFactor":[0.0,0.0,0.0],"alphaMode":"OPAQUE","name":"Screen"},{"pbrMetallicRoughness":{"baseColorFactor":[1.0,1.0,1.0,1.0],"baseColorTexture":{"index":6,"texCoord":0},"metallicFactor":1.0,"roughnessFactor":1.0,"metallicRoughnessTexture":{"index":7,"texCoord":0}},"normalTexture":{"index":5,"texCoord":0},"emissiveFactor":[0.0,0.0,0.0],"alphaMode":"OPAQUE","name":"Body"},{"pbrMetallicRoughness":{"baseColorFactor":[1.0,1.0,1.0,1.0],"baseColorTexture":{"index":1,"texCoord":0},"metallicFactor":1.0,"roughnessFactor":1.0,"metallicRoughnessTexture":{"index":8,"texCoord":0}},"normalTexture":{"index":0,"texCoord":0},"emissiveFactor":[0.0,0.0,0.0],"alphaMode":"OPAQUE","name":"Metal"},{"pbrMetallicRoughness":{"baseColorFactor":[1.0,1.0,1.0,1.0],"baseColorTexture":{"index":9,"texCoord":0},"metallicFactor":1.0,"roughnessFactor":1.0,"metallicRoughnessTexture":{"index":10,"texCoord":0}},"normalTexture":{"index":0,"texCoord":0},"emissiveFactor":[0.0,0.0,0.0],"alphaMode":"OPAQUE","name":"PlasticBlack"},{"pbrMetallicRoughness":{"baseColorFactor":[1.0,1.0,1.0,1.0],"baseColorTexture":{"index":1,"texCoord":0},"metallicFactor":1.0,"roughnessFactor":1.0,"metallicRoughnessTexture":{"index":2,"texCoord":0}},"normalTexture":{"index":0,"texCoord":0},"emissiveFactor":[0.0,0.0,0.0],"alphaMode":"OPAQUE","name":"Metal2"},{"pbrMetallicRoughness":{"baseColorFactor":[1.0,1.0,1.0,1.0],"baseColorTexture":{"index":11,"texCoord":0},"metallicFactor":1.0,"roughnessFactor":1.0,"metallicRoughnessTexture":{"index":12,"texCoord":0}},"normalTexture":{"index":0,"texCoord":0},"emissiveFactor":[0.0,0.0,0.0],"alphaMode":"OPAQUE","name":"PlasticWhite"},{"pbrMetallicRoughness":{"baseColorFactor":[1.0,1.0,1.0,1.0],"baseColorTexture":{"index":14,"texCoord":0},"metallicFactor":1.0,"roughnessFactor":1.0,"metallicRoughnessTexture":{"index":15,"texCoord":0}},"normalTexture":{"index":13,"texCoord":0},"emissiveFactor":[0.0,0.0,0.0],"alphaMode":"OPAQUE","name":"Metal_Dial"},{"pbrMetallicRoughness":{"baseColorFactor":[1.0,1.0,1.0,1.0],"baseColorTexture":{"index":17,"texCoord":0},"metallicFactor":1.0,"roughnessFactor":1.0,"metallicRoughnessTexture":{"index":18,"texCoord":0}},"normalTexture":{"index":16,"texCoord":0},"emissiveFactor":[0.0,0.0,0.0],"alphaMode":"OPAQUE","name":"Speaker"},{"pbrMetallicRoughness":{"baseColorFactor":[0.6125001,0.6125001,0.6125001,1.0],"metallicFactor":0.0,"roughnessFactor":0.9},"emissiveFactor":[0.0,0.0,0.0],"alphaMode":"OPAQUE","name":"backgroundMaterial"}],"textures":[{"sampler":0,"source":0,"name":"BaseNormal.png"},{"sampler":1,"source":1,"name":"BaseColorMetal255_baseColor.jpg"},{"sampler":2,"source":2,"name":"BaseRoughness1WhiteMetallic.jpg"},{"sampler":3,"source":3,"name":"tv_02_Screen_BaseColor255_baseColor.jpg"},{"sampler":4,"source":4,"name":"BaseRoughness2BaseMetallic.jpg"},{"sampler":5,"source":5,"name":"tv_02_Body_Normal.png"},{"sampler":6,"source":6,"name":"tv_02_Body_BaseColor255_baseColor.jpg"},{"sampler":7,"source":7,"name":"tv_02_Body_RoughnessBaseMetallic.jpg"},{"sampler":8,"source":8,"name":"tv_02_Metal_RoughnessWhiteMetallic.jpg"},{"sampler":9,"source":9,"name":"tv_02_PlasticBlack_BaseColor255_baseColor.jpg"},{"sampler":10,"source":10,"name":"BaseRoughness2WhiteMetallic.jpg"},{"sampler":11,"source":11,"name":"tv_02_PlasticWhite_BaseColor255_baseColor.jpg"},{"sampler":12,"source":12,"name":"tv_02_PlasticWhite_RoughnessBaseMetallic.jpg"},{"sampler":13,"source":13,"name":"tv_02_Metal_Dial_Normal.png"},{"sampler":14,"source":14,"name":"tv_02_Metal_Dial_BaseColor255_baseColor.jpg"},{"sampler":15,"source":15,"name":"tv_02_Metal_Dial_RoughnessWhiteMetallic.jpg"},{"sampler":16,"source":16,"name":"tv_02_Speaker_Normal.png"},{"sampler":17,"source":17,"name":"tv_02_Speaker_BaseColor255_baseColor.jpg"},{"sampler":18,"source":18,"name":"tv_02_Speaker_RoughnessBaseMetallic.jpg"}],"images":[{"uri":"BaseNormal.png"},{"uri":"BaseColorMetal255_baseColor.jpg"},{"uri":"BaseRoughness1WhiteMetallic.jpg"},{"uri":"tv_02_Screen_BaseColor255_baseColor.jpg"},{"uri":"BaseRoughness2BaseMetallic.jpg"},{"uri":"tv_02_Body_Normal.png"},{"uri":"tv_02_Body_BaseColor255_baseColor.jpg"},{"uri":"tv_02_Body_RoughnessBaseMetallic.jpg"},{"uri":"tv_02_Metal_RoughnessWhiteMetallic.jpg"},{"uri":"tv_02_PlasticBlack_BaseColor255_baseColor.jpg"},{"uri":"BaseRoughness2WhiteMetallic.jpg"},{"uri":"tv_02_PlasticWhite_BaseColor255_baseColor.jpg"},{"uri":"tv_02_PlasticWhite_RoughnessBaseMetallic.jpg"},{"uri":"tv_02_Metal_Dial_Normal.png"},{"uri":"tv_02_Metal_Dial_BaseColor255_baseColor.jpg"},{"uri":"tv_02_Metal_Dial_RoughnessWhiteMetallic.jpg"},{"uri":"tv_02_Speaker_Normal.png"},{"uri":"tv_02_Speaker_BaseColor255_baseColor.jpg"},{"uri":"tv_02_Speaker_RoughnessBaseMetallic.jpg"}],"samplers":[{"magFilter":9729,"minFilter":9987,"wrapS":10497,"wrapT":10497},{"magFilter":9729,"minFilter":9987,"wrapS":10497,"wrapT":10497},{"magFilter":9729,"minFilter":9987,"wrapS":10497,"wrapT":10497},{"magFilter":9729,"minFilter":9987,"wrapS":10497,"wrapT":10497},{"magFilter":9729,"minFilter":9987,"wrapS":10497,"wrapT":10497},{"magFilter":9729,"minFilter":9987,"wrapS":10497,"wrapT":10497},{"magFilter":9729,"minFilter":9987,"wrapS":10497,"wrapT":10497},{"magFilter":9729,"minFilter":9987,"wrapS":10497,"wrapT":10497},{"magFilter":9729,"minFilter":9987,"wrapS":10497,"wrapT":10497},{"magFilter":9729,"minFilter":9987,"wrapS":10497,"wrapT":10497},{"magFilter":9729,"minFilter":9987,"wrapS":10497,"wrapT":10497},{"magFilter":9729,"minFilter":9987,"wrapS":10497,"wrapT":10497},{"magFilter":9729,"minFilter":9987,"wrapS":10497,"wrapT":10497},{"magFilter":9729,"minFilter":9987,"wrapS":10497,"wrapT":10497},{"magFilter":9729,"minFilter":9987,"wrapS":10497,"wrapT":10497},{"magFilter":9729,"minFilter":9987,"wrapS":10497,"wrapT":10497},{"magFilter":9729,"minFilter":9987,"wrapS":10497,"wrapT":10497},{"magFilter":9729,"minFilter":9987,"wrapS":10497,"wrapT":10497},{"magFilter":9729,"minFilter":9987,"wrapS":10497,"wrapT":10497}],"extensions":{"KHR_lights":{"lights":[{"color":[1.0,1.0,1.0],"intensity":1.0,"type":"ambient"}]}}}